<?xml version="1.0" encoding="UTF-8" standalone="no"?>
<!DOCTYPE svg PUBLIC "-//W3C//DTD SVG 1.1//EN" "http://www.w3.org/Graphics/SVG/1.1/DTD/svg11.dtd">
<svg width="100%" height="100%" viewBox="0 0 640 640" version="1.1" xmlns="http://www.w3.org/2000/svg" xmlns:xlink="http://www.w3.org/1999/xlink" xml:space="preserve" xmlns:serif="http://www.serif.com/" style="fill-rule:evenodd;clip-rule:evenodd;stroke-linejoin:round;stroke-miterlimit:2;">
    <g transform="matrix(1.33,0,0,1.3,204.5,320)">
        <g>
            <g transform="matrix(1,0,0,1,-245,-245)">
                <g id="Capa_1">
                    <path d="M262.096,490C247.945,490 234.213,487.226 221.278,481.755C208.791,476.474 197.578,468.914 187.952,459.287C178.326,449.661 170.767,438.449 165.484,425.961C160.014,413.028 157.24,399.295 157.24,385.145C157.24,368.379 161.298,351.7 168.973,336.912C175.58,324.183 184.873,312.802 196.027,303.729L196.027,49.967C196.028,22.415 218.443,0 245.996,0L278.197,0C305.749,0 328.165,22.415 328.165,49.967L328.165,303.729C339.319,312.801 348.612,324.182 355.219,336.912C362.895,351.7 366.952,368.38 366.952,385.145C366.952,399.295 364.179,413.029 358.707,425.961C353.425,438.449 345.867,449.661 336.24,459.287C326.614,468.914 315.401,476.473 302.913,481.755C289.981,487.226 276.248,490 262.096,490ZM245.996,20.578C229.791,20.578 216.607,33.762 216.607,49.967L216.607,308.78C216.607,312.061 215.042,315.146 212.394,317.084C190.745,332.924 177.82,358.367 177.82,385.144C177.82,431.614 215.626,469.42 262.097,469.42C308.568,469.42 346.374,431.613 346.374,385.144C346.374,358.367 333.449,332.923 311.799,317.084C309.151,315.146 307.586,312.061 307.586,308.78L307.586,49.967C307.586,33.762 294.402,20.578 278.197,20.578L245.996,20.578Z" style="fill-rule:nonzero;"/>
                </g>
            </g>
            <g transform="matrix(1,0,0,1,-245,-245)">
                <g id="Capa_11" serif:id="Capa_1">
                    <path d="M283.943,325.025L283.943,100.375C283.943,91.457 276.714,84.228 267.797,84.228L256.395,84.228C247.478,84.228 240.249,91.457 240.249,100.375L240.249,325.025C215.688,333.952 198.144,357.5 198.144,385.146C198.144,420.466 226.776,449.099 262.096,449.099C297.416,449.099 326.049,420.466 326.049,385.146C326.048,357.5 308.505,333.952 283.943,325.025ZM247.931,365.24C243.148,369.483 240.053,375.067 238.982,381.388C238.419,384.718 238.456,388.069 239.095,391.345C239.914,395.549 237.17,399.621 232.965,400.441C232.464,400.54 231.965,400.587 231.473,400.587C227.836,400.587 224.59,398.017 223.868,394.313C222.871,389.196 222.811,383.976 223.688,378.799C225.331,369.092 230.286,360.156 237.638,353.635C240.843,350.793 245.745,351.086 248.588,354.291C251.429,357.496 251.136,362.397 247.931,365.24Z" style="fill-rule:nonzero;"/>
                </g>
            </g>
            <g transform="matrix(1,0,0,1,-245,-245)">
                <g id="Capa_12" serif:id="Capa_1">
                    <path d="M157.262,75.302C157.262,79.96 153.486,83.738 148.826,83.738L131.485,83.738C126.825,83.738 123.048,79.96 123.048,75.302L123.048,66.11C123.048,61.45 126.825,57.673 131.485,57.673L148.826,57.673C153.486,57.673 157.262,61.449 157.262,66.11L157.262,75.302Z" style="fill-rule:nonzero;"/>
                </g>
            </g>
            <g transform="matrix(1,0,0,1,-245,-245)">
                <g id="Capa_13" serif:id="Capa_1">
                    <path d="M157.262,130.298C157.262,134.958 153.486,138.735 148.826,138.735L131.485,138.735C126.825,138.735 123.048,134.959 123.048,130.298L123.048,121.106C123.048,116.446 126.825,112.669 131.485,112.669L148.826,112.669C153.486,112.669 157.262,116.445 157.262,121.106L157.262,130.298Z" style="fill-rule:nonzero;"/>
                </g>
            </g>
            <g transform="matrix(1,0,0,1,-245,-245)">
                <g id="Capa_14" serif:id="Capa_1">
                    <path d="M157.262,185.294C157.262,189.954 153.486,193.731 148.826,193.731L131.485,193.731C126.825,193.731 123.048,189.955 123.048,185.294L123.048,176.103C123.048,171.444 126.825,167.665 131.485,167.665L148.826,167.665C153.486,167.665 157.262,171.443 157.262,176.103L157.262,185.294Z" style="fill-rule:nonzero;"/>
                </g>
            </g>
            <g transform="matrix(1,0,0,1,-245,-245)">
                <g id="Capa_15" serif:id="Capa_1">
                    <path d="M157.262,240.291C157.262,244.95 153.486,248.729 148.826,248.729L131.485,248.729C126.825,248.729 123.048,244.951 123.048,240.291L123.048,231.1C123.048,226.44 126.825,222.664 131.485,222.664L148.826,222.664C153.486,222.664 157.262,226.44 157.262,231.1L157.262,240.291Z" style="fill-rule:nonzero;"/>
                </g>
            </g>
            <g transform="matrix(1,0,0,1,-245,-245)">
                <g id="Capa_16" serif:id="Capa_1">
                    <path d="M157.262,295.287C157.262,299.948 153.486,303.725 148.826,303.725L131.485,303.725C126.825,303.725 123.048,299.949 123.048,295.287L123.048,286.096C123.048,281.438 126.825,277.66 131.485,277.66L148.826,277.66C153.486,277.66 157.262,281.438 157.262,286.096L157.262,295.287Z" style="fill-rule:nonzero;"/>
                </g>
            </g>
        </g>
    </g>
    <g id="Capa_17" serif:id="Capa_1" transform="matrix(7.08,0,0,7.08,489.7,214.8)">
        <g id="zigbee-svgrepo-com.svg" transform="matrix(0.0384483,0,0,0.0384483,-4.94147,-14.8172)">
            <g id="Capa_18" serif:id="Capa_1">
                <g id="zigbee-svgrepo-com.svg1" serif:id="zigbee-svgrepo-com.svg" transform="matrix(1,0,0,1,-400,-400)">
                    <clipPath id="_clip1">
                        <rect x="0" y="0" width="800" height="800"/>
                    </clipPath>
                    <g clip-path="url(#_clip1)">
                        <path d="M399.6,0C291.038,-0.169 187.069,44.425 112.367,123.2C346.367,94.033 492.4,103.767 555.333,111.867C680.4,131.3 673.933,225.333 673.933,225.333L274.567,637.067C351.2,644.4 504.467,649.267 734.433,616.033C776.097,551.847 798.242,476.923 798.167,400.4C798.167,179.133 619.833,0 399.6,0ZM407.333,143.667C325.633,143.2 214.933,148.533 75.233,167.767C28.467,233.433 1.833,313.667 1.833,400.4C1.833,620.867 179.333,800 399.6,800C520.6,800 627.933,745.667 701.367,660.6C458.5,692.2 307.6,681.633 243.033,673.533C117.2,654.867 124.467,560.067 124.467,560.067L523.033,149.133C484.568,145.588 445.962,143.775 407.333,143.7L407.333,143.667Z" style="fill-rule:nonzero;"/>
                    </g>
                </g>
                <g id="zigbee-svgrepo-com.svg2" serif:id="zigbee-svgrepo-com.svg">
                </g>
            </g>
        </g>
    </g>
</svg>
